<?xml version="1.0" ?><svg height="48" width="48" xmlns="http://www.w3.org/2000/svg" xmlns:xlink="http://www.w3.org/1999/xlink" version="1.1" viewBox="0 0 512 512" style="enable-background:new 0 0 512 512;" xml:space="preserve"><g id="_x33_9_x2C__Support_x2C__avatar_x2C__customer_x2C__agent_x2C__helpdesk_x2C__telemarketing"><g><g><path style="fill:#DC5461;" d="M208.473,356.861L186.245,302.8c-2.232-5.427-8.439-8.018-13.867-5.787     c-5.427,2.232-8.018,8.44-5.787,13.868l22.227,54.061c2.217,5.391,8.4,8.031,13.868,5.787     C208.113,368.496,210.704,362.288,208.473,356.861z"/><path style="fill:#DC5461;" d="M339.622,297.013c-5.429-2.232-11.635,0.36-13.867,5.787L256,472.438l-31.365-76.276     c-2.232-5.429-8.441-8.014-13.868-5.787c-5.428,2.232-8.018,8.441-5.787,13.868l41.193,100.173     C247.811,508.4,251.693,511,256,511s8.189-2.6,9.827-6.585l79.582-193.535C347.64,305.454,345.05,299.245,339.622,297.013z"/><path style="fill:#DC5461;" d="M131.319,302.229c-5.868,0-10.625,4.757-10.625,10.625v187.521     c0,5.868,4.757,10.625,10.625,10.625c5.868,0,10.625-4.757,10.625-10.625V312.854     C141.944,306.987,137.187,302.229,131.319,302.229z"/><path style="fill:#DC5461;" d="M380.684,302.229c-5.868,0-10.625,4.757-10.625,10.625v91.715c0,5.868,4.757,10.625,10.625,10.625     c5.868,0,10.625-4.757,10.625-10.625v-91.715C391.309,306.987,386.552,302.229,380.684,302.229z"/><path style="fill:#DC5461;" d="M380.684,436.444c-5.868,0-10.625,4.757-10.625,10.625v53.306c0,5.868,4.757,10.625,10.625,10.625     c5.868,0,10.625-4.757,10.625-10.625v-53.306C391.309,441.202,386.552,436.444,380.684,436.444z"/><path style="fill:#FFFFFF;" d="M389.994,303.378l-88.458-11.794v-21.582c12.686-6.919,23.634-16.635,32.016-28.313h47.129     c5.867,0,10.625-4.757,10.625-10.625c0-19.601,0-75.012,0-94.758C391.306,61.698,330.608,1,256,1     c-74.607,0-135.306,60.698-135.306,135.306c0,16.61,0,39.078,0,54.86c0,5.868,4.757,10.625,10.625,10.625h30.557     c4.869,29.454,23.27,54.402,48.588,68.21v21.582l-88.458,11.794c-34.866,4.65-61.159,34.68-61.159,69.853v127.144     c0,5.868,4.757,10.625,10.625,10.625h369.057c5.868,0,10.625-4.757,10.625-10.625V373.231     C451.153,338.057,424.861,308.027,389.994,303.378z M345.043,220.438c2.298-5.953,4.014-12.192,5.081-18.648h19.932v18.648     H345.043z M370.056,180.541h-18.648v-28.622h18.648V180.541z M256,22.25c61.001,0,110.967,48.136,113.916,108.419h-18.508     C351.337,82.522,307.823,40.898,256,40.898c-50.911,0-95.336,40.647-95.408,89.771h-18.508     C145.033,70.386,194.999,22.25,256,22.25z M326.88,110.72h-6.965c-21.612,0-41.95-9.516-55.8-26.107     c-4.26-5.102-12.1-5.063-16.325,0.013c-13.796,16.583-34.081,26.094-55.651,26.094h-7.019     c10.726-28.412,39.18-48.572,70.88-48.572S316.154,82.308,326.88,110.72z M141.944,151.919h18.648v28.622h-18.648V151.919z      M181.842,186.179c0-11.028,0-41.649,0-54.209h10.297c23.91,0,46.598-9.033,63.831-25.116     c17.277,16.084,40.006,25.116,63.945,25.116h10.243c0,12.697,0,43.206,0,54.209c0,12.355-3.054,24.004-8.42,34.259h-50.776     c-5.867,0-10.625,4.757-10.625,10.625s4.758,10.625,10.625,10.625h34.136c-13.089,11.591-30.281,18.649-49.099,18.649     C215.109,260.337,181.842,227.07,181.842,186.179z M429.903,489.75H82.097V373.231c0-24.567,18.364-45.542,42.717-48.79     l97.68-13.024c5.279-0.703,9.221-5.207,9.221-10.532v-22.435c15.87,4.18,32.68,4.186,48.572,0v22.435     c0,5.325,3.942,9.828,9.221,10.532l97.68,13.024c24.352,3.248,42.717,24.223,42.717,48.79V489.75z"/><path style="fill:#FFFFFF;" d="M221.089,150.617c-5.868,0-10.625,4.757-10.625,10.625v9.975c0,5.868,4.757,10.625,10.625,10.625     s10.625-4.757,10.625-10.625v-9.975C231.714,155.375,226.957,150.617,221.089,150.617z"/><path style="fill:#FFFFFF;" d="M290.911,181.842c5.868,0,10.625-4.757,10.625-10.625v-9.975c0-5.868-4.757-10.625-10.625-10.625     c-5.868,0-10.625,4.757-10.625,10.625v9.975C280.286,177.085,285.043,181.842,290.911,181.842z"/></g></g></g><g id="Layer_1"/></svg>